<svg width="32" height="32" viewBox="0 0 32 32" fill="none" xmlns="http://www.w3.org/2000/svg">
<path d="M0 4C0 1.79086 1.79086 0 4 0H28C30.2091 0 32 1.79086 32 4V28C32 30.2091 30.2091 32 28 32H4C1.79086 32 0 30.2091 0 28V4Z" fill="#F2F7F6"/>
<path d="M24 26H8C7.73478 26 7.48043 25.8946 7.29289 25.7071C7.10536 25.5196 7 25.2652 7 25V7C7 6.73478 7.10536 6.48043 7.29289 6.29289C7.48043 6.10536 7.73478 6 8 6H24C24.2652 6 24.5196 6.10536 24.7071 6.29289C24.8946 6.48043 25 6.73478 25 7V25C25 25.2652 24.8946 25.5196 24.7071 25.7071C24.5196 25.8946 24.2652 26 24 26ZM23 24V8H9V24H23ZM12 12C12 11.4477 12.4477 11 13 11H19C19.5523 11 20 11.4477 20 12C20 12.5523 19.5523 13 19 13H13C12.4477 13 12 12.5523 12 12ZM12 16C12 15.4477 12.4477 15 13 15H19C19.5523 15 20 15.4477 20 16C20 16.5523 19.5523 17 19 17H13C12.4477 17 12 16.5523 12 16ZM12 20C12 19.4477 12.4477 19 13 19H16C16.5523 19 17 19.4477 17 20C17 20.5523 16.5523 21 16 21H13C12.4477 21 12 20.5523 12 20Z" fill="#12877F"/>
</svg>
