<svg width="24" height="24" viewBox="0 0 24 24" fill="none" xmlns="http://www.w3.org/2000/svg">
<path d="M0 12C0 5.37258 5.37258 0 12 0C18.6274 0 24 5.37258 24 12C24 18.6274 18.6274 24 12 24C5.37258 24 0 18.6274 0 12Z" fill="#ED1164"/>
<path d="M9.56058 16.2838C9.95073 16.6786 10.5877 16.6801 10.9797 16.2872L17.3972 9.85523C17.7319 9.51978 17.7364 8.9781 17.4072 8.63721C17.0693 8.28723 16.5099 8.28264 16.1663 8.62704L10.2685 14.5381L7.81485 12.079C7.47995 11.7434 6.93616 11.7434 6.60126 12.079C6.26852 12.4125 6.26725 12.952 6.59842 13.287L9.56058 16.2838Z" fill="white"/>
</svg>
