<svg width="112" height="26" viewBox="0 0 112 26" fill="none" xmlns="http://www.w3.org/2000/svg">
<path fill-rule="evenodd" clip-rule="evenodd" d="M0 5V1H4V2H1V5H0ZM16 1H8V2H16V1ZM20 1V2H23V5H24V1H20ZM24 9H23V17H24V9ZM24 21H23V24H20V25H24V21ZM16 25V24H8V25H16ZM4 25V24H1V21H0V25H4ZM0 17H1V9H0V17Z" fill="#282828"/>
<path d="M49.31 9.17C49.23 9.31 49.1433 9.41333 49.05 9.48C48.9633 9.54 48.8533 9.57 48.72 9.57C48.58 9.57 48.4267 9.52 48.26 9.42C48.1 9.31333 47.9067 9.19667 47.68 9.07C47.4533 8.94333 47.1867 8.83 46.88 8.73C46.58 8.62333 46.2233 8.57 45.81 8.57C45.4367 8.57 45.11 8.61667 44.83 8.71C44.55 8.79667 44.3133 8.92 44.12 9.08C43.9333 9.24 43.7933 9.43333 43.7 9.66C43.6067 9.88 43.56 10.1233 43.56 10.39C43.56 10.73 43.6533 11.0133 43.84 11.24C44.0333 11.4667 44.2867 11.66 44.6 11.82C44.9133 11.98 45.27 12.1233 45.67 12.25C46.07 12.3767 46.48 12.5133 46.9 12.66C47.32 12.8 47.73 12.9667 48.13 13.16C48.53 13.3467 48.8867 13.5867 49.2 13.88C49.5133 14.1667 49.7633 14.52 49.95 14.94C50.1433 15.36 50.24 15.87 50.24 16.47C50.24 17.1233 50.1267 17.7367 49.9 18.31C49.68 18.8767 49.3533 19.3733 48.92 19.8C48.4933 20.22 47.97 20.5533 47.35 20.8C46.73 21.04 46.02 21.16 45.22 21.16C44.76 21.16 44.3067 21.1133 43.86 21.02C43.4133 20.9333 42.9833 20.8067 42.57 20.64C42.1633 20.4733 41.78 20.2733 41.42 20.04C41.06 19.8067 40.74 19.5467 40.46 19.26L41.25 17.97C41.3167 17.8767 41.4033 17.8 41.51 17.74C41.6167 17.6733 41.73 17.64 41.85 17.64C42.0167 17.64 42.1967 17.71 42.39 17.85C42.5833 17.9833 42.8133 18.1333 43.08 18.3C43.3467 18.4667 43.6567 18.62 44.01 18.76C44.37 18.8933 44.8 18.96 45.3 18.96C46.0667 18.96 46.66 18.78 47.08 18.42C47.5 18.0533 47.71 17.53 47.71 16.85C47.71 16.47 47.6133 16.16 47.42 15.92C47.2333 15.68 46.9833 15.48 46.67 15.32C46.3567 15.1533 46 15.0133 45.6 14.9C45.2 14.7867 44.7933 14.6633 44.38 14.53C43.9667 14.3967 43.56 14.2367 43.16 14.05C42.76 13.8633 42.4033 13.62 42.09 13.32C41.7767 13.02 41.5233 12.6467 41.33 12.2C41.1433 11.7467 41.05 11.19 41.05 10.53C41.05 10.0033 41.1533 9.49 41.36 8.99C41.5733 8.49 41.88 8.04667 42.28 7.66C42.68 7.27333 43.1733 6.96333 43.76 6.73C44.3467 6.49667 45.02 6.38 45.78 6.38C46.6333 6.38 47.42 6.51333 48.14 6.78C48.86 7.04667 49.4733 7.42 49.98 7.9L49.31 9.17ZM60.8608 10.74V21H59.3508C59.0241 21 58.8174 20.85 58.7308 20.55L58.5608 19.73C58.1408 20.1567 57.6774 20.5033 57.1708 20.77C56.6641 21.03 56.0674 21.16 55.3808 21.16C54.8208 21.16 54.3241 21.0667 53.8908 20.88C53.4641 20.6867 53.1041 20.4167 52.8108 20.07C52.5174 19.7233 52.2941 19.3133 52.1408 18.84C51.9941 18.36 51.9208 17.8333 51.9208 17.26V10.74H54.3908V17.26C54.3908 17.8867 54.5341 18.3733 54.8208 18.72C55.1141 19.06 55.5508 19.23 56.1308 19.23C56.5574 19.23 56.9574 19.1367 57.3308 18.95C57.7041 18.7567 58.0574 18.4933 58.3908 18.16V10.74H60.8608ZM65.7798 18.34C66.0598 18.68 66.3632 18.92 66.6898 19.06C67.0232 19.2 67.3732 19.27 67.7398 19.27C68.1198 19.27 68.4598 19.2033 68.7598 19.07C69.0665 18.93 69.3265 18.7167 69.5398 18.43C69.7532 18.1367 69.9165 17.7667 70.0298 17.32C70.1432 16.8667 70.1998 16.3267 70.1998 15.7C70.1998 14.5733 70.0132 13.76 69.6398 13.26C69.2665 12.7533 68.7298 12.5 68.0298 12.5C67.5565 12.5 67.1432 12.61 66.7898 12.83C66.4365 13.0433 66.0998 13.3467 65.7798 13.74V18.34ZM65.7798 12C66.1932 11.5667 66.6498 11.2233 67.1498 10.97C67.6565 10.71 68.2332 10.58 68.8798 10.58C69.4732 10.58 70.0065 10.6967 70.4798 10.93C70.9598 11.1633 71.3665 11.5 71.6998 11.94C72.0398 12.3733 72.2998 12.9 72.4798 13.52C72.6598 14.14 72.7498 14.8367 72.7498 15.61C72.7498 16.4433 72.6465 17.2 72.4398 17.88C72.2332 18.56 71.9365 19.1433 71.5498 19.63C71.1698 20.11 70.7098 20.4833 70.1698 20.75C69.6298 21.0167 69.0298 21.15 68.3698 21.15C68.0498 21.15 67.7598 21.1167 67.4998 21.05C67.2398 20.99 66.9998 20.9033 66.7798 20.79C66.5598 20.6767 66.3565 20.54 66.1698 20.38C65.9898 20.2133 65.8165 20.03 65.6498 19.83L65.5398 20.52C65.4998 20.6933 65.4298 20.8167 65.3298 20.89C65.2365 20.9633 65.1065 21 64.9398 21H63.3098V6.14H65.7798V12ZM81.8713 11.76C81.8713 11.9333 81.8413 12.1033 81.7813 12.27C81.7213 12.4367 81.6413 12.5733 81.5413 12.68L76.6713 19.1H81.7213V21H73.8013V19.97C73.8013 19.8567 73.8279 19.7233 73.8813 19.57C73.9346 19.41 74.0146 19.26 74.1213 19.12L79.0413 12.63H74.0913V10.74H81.8713V11.76ZM90.1347 14.69C90.1347 14.37 90.088 14.07 89.9947 13.79C89.908 13.5033 89.7747 13.2533 89.5947 13.04C89.4147 12.8267 89.1847 12.66 88.9047 12.54C88.6314 12.4133 88.3114 12.35 87.9447 12.35C87.2314 12.35 86.668 12.5533 86.2547 12.96C85.848 13.3667 85.588 13.9433 85.4747 14.69H90.1347ZM85.4247 16.18C85.4647 16.7067 85.558 17.1633 85.7047 17.55C85.8514 17.93 86.0447 18.2467 86.2847 18.5C86.5247 18.7467 86.808 18.9333 87.1347 19.06C87.468 19.18 87.8347 19.24 88.2347 19.24C88.6347 19.24 88.978 19.1933 89.2647 19.1C89.558 19.0067 89.8114 18.9033 90.0247 18.79C90.2447 18.6767 90.4347 18.5733 90.5947 18.48C90.7614 18.3867 90.9214 18.34 91.0747 18.34C91.2814 18.34 91.4347 18.4167 91.5347 18.57L92.2447 19.47C91.9714 19.79 91.6647 20.06 91.3247 20.28C90.9847 20.4933 90.628 20.6667 90.2547 20.8C89.888 20.9267 89.5114 21.0167 89.1247 21.07C88.7447 21.1233 88.3747 21.15 88.0147 21.15C87.3014 21.15 86.638 21.0333 86.0247 20.8C85.4114 20.56 84.878 20.21 84.4247 19.75C83.9714 19.2833 83.6147 18.71 83.3547 18.03C83.0947 17.3433 82.9647 16.55 82.9647 15.65C82.9647 14.95 83.078 14.2933 83.3047 13.68C83.5314 13.06 83.8547 12.5233 84.2747 12.07C84.7014 11.61 85.218 11.2467 85.8247 10.98C86.438 10.7133 87.128 10.58 87.8947 10.58C88.5414 10.58 89.138 10.6833 89.6847 10.89C90.2314 11.0967 90.7014 11.4 91.0947 11.8C91.488 12.1933 91.7947 12.68 92.0147 13.26C92.2414 13.8333 92.3547 14.49 92.3547 15.23C92.3547 15.6033 92.3147 15.8567 92.2347 15.99C92.1547 16.1167 92.0014 16.18 91.7747 16.18H85.4247ZM96.5383 12.52C96.8583 11.9067 97.2383 11.4267 97.6783 11.08C98.1183 10.7267 98.6383 10.55 99.2383 10.55C99.7116 10.55 100.092 10.6533 100.378 10.86L100.218 12.71C100.185 12.83 100.135 12.9167 100.068 12.97C100.008 13.0167 99.9249 13.04 99.8183 13.04C99.7183 13.04 99.5683 13.0233 99.3683 12.99C99.1749 12.9567 98.9849 12.94 98.7983 12.94C98.5249 12.94 98.2816 12.98 98.0683 13.06C97.8549 13.14 97.6616 13.2567 97.4883 13.41C97.3216 13.5567 97.1716 13.7367 97.0383 13.95C96.9116 14.1633 96.7916 14.4067 96.6783 14.68V21H94.2083V10.74H95.6583C95.9116 10.74 96.0883 10.7867 96.1883 10.88C96.2883 10.9667 96.3549 11.1267 96.3883 11.36L96.5383 12.52ZM105.916 10.58C106.676 10.58 107.366 10.7033 107.986 10.95C108.613 11.1967 109.146 11.5467 109.586 12C110.033 12.4533 110.376 13.0067 110.616 13.66C110.856 14.3133 110.976 15.0433 110.976 15.85C110.976 16.6633 110.856 17.3967 110.616 18.05C110.376 18.7033 110.033 19.26 109.586 19.72C109.146 20.18 108.613 20.5333 107.986 20.78C107.366 21.0267 106.676 21.15 105.916 21.15C105.15 21.15 104.453 21.0267 103.826 20.78C103.2 20.5333 102.663 20.18 102.216 19.72C101.776 19.26 101.433 18.7033 101.186 18.05C100.946 17.3967 100.826 16.6633 100.826 15.85C100.826 15.0433 100.946 14.3133 101.186 13.66C101.433 13.0067 101.776 12.4533 102.216 12C102.663 11.5467 103.2 11.1967 103.826 10.95C104.453 10.7033 105.15 10.58 105.916 10.58ZM105.916 19.25C106.77 19.25 107.4 18.9633 107.806 18.39C108.22 17.8167 108.426 16.9767 108.426 15.87C108.426 14.7633 108.22 13.92 107.806 13.34C107.4 12.76 106.77 12.47 105.916 12.47C105.05 12.47 104.406 12.7633 103.986 13.35C103.573 13.93 103.366 14.77 103.366 15.87C103.366 16.97 103.573 17.81 103.986 18.39C104.406 18.9633 105.05 19.25 105.916 19.25Z" fill="#282828"/>
</svg>
