<svg width="143" height="20" viewBox="0 0 143 20" fill="none" xmlns="http://www.w3.org/2000/svg">
<path d="M0.0434254 13.5161H4.27306C4.10004 14.854 5.30498 15.5945 7.19889 15.5945C9.21329 15.5945 10.2483 14.8042 10.2483 13.6405C10.2483 12.8471 9.73234 12.4271 8.39455 12.0848L5.95996 11.4408C2.79006 10.6007 1.21438 9.08856 1.21438 6.56523C1.21438 3.46941 3.50066 0.746948 8.76221 0.746948C12.0094 0.746948 15.6458 1.88571 15.4264 6.391H11.2802C11.4996 4.75752 10.1494 4.26281 8.67261 4.26281C6.75708 4.26281 5.84565 5.0531 5.84565 6.04563C5.84565 6.73636 6.28746 7.25907 7.98673 7.67911L10.4924 8.30139C13.4676 9.04189 14.895 10.7905 14.895 13.2267C14.895 17.3119 11.0331 19.269 6.87757 19.269C2.57688 19.2597 -0.398384 16.9573 0.0434254 13.5161Z" fill="#97144D"/>
<path d="M25.8103 12.0538C25.5014 14.4309 26.8175 15.4763 28.5631 15.4763C30.3088 15.4763 31.8319 14.4371 32.1285 12.3338L33.7011 0.992798H38.1501L36.5775 12.3338C35.9874 16.5684 33.3582 19.2659 28.4643 19.2659C23.8917 19.2659 20.7403 16.4937 21.4571 11.2946L22.8845 0.992798H27.3582L25.8103 12.0538Z" fill="#97144D"/>
<path d="M58.0903 13.2921C58.0903 16.8577 55.3838 19.0108 51.6485 19.0108H42.7969L45.3056 0.986572H52.9029C56.6104 0.986572 58.631 2.89385 58.631 5.54475C58.631 6.92932 58.0903 8.96727 55.9986 9.72645C57.4013 10.3705 58.0903 11.7582 58.0903 13.2921ZM53.5177 13.317C53.5177 12.3027 52.7793 11.7333 51.6485 11.7333H48.182L47.6908 15.274H51.1573C52.5074 15.274 53.5177 14.6549 53.5177 13.317ZM54.0584 6.35993C54.0584 5.54475 53.5393 4.72646 52.1892 4.72646H49.1676L48.6516 8.34188H51.701C53.3694 8.34188 54.0584 7.47381 54.0584 6.35993Z" fill="#97144D"/>
<path d="M76.9453 15.1994L76.4046 19.0108H62.9062L63.379 15.719L72.9196 4.80113H64.899L65.4644 0.986572H78.9597L78.4685 4.28153L69.0545 15.1994H76.9453Z" fill="#97144D"/>
<path d="M89.4347 4.80113L88.9929 8.11786H94.4769L93.9671 11.8329H88.4769L88.0104 15.1994H96.0989L95.5583 19.0108H83.0918L85.6005 0.986572H97.6746L97.1587 4.80113H89.4347Z" fill="#97144D"/>
<path d="M104.653 0.986572H112.445C116.233 0.986572 118.593 3.18943 118.593 6.7053C118.593 9.92558 116.724 11.8329 114.413 12.648L116.576 19.0108H111.66L109.865 13.2423H107.332L106.522 19.0108H102.145L104.653 0.986572ZM110.922 9.6051C112.776 9.6051 113.947 8.48812 113.947 6.95421C113.947 5.47008 113.134 4.80113 111.66 4.80113H108.512L107.823 9.6051H110.922Z" fill="#97144D"/>
<path fill-rule="evenodd" clip-rule="evenodd" d="M136.489 0.992454C138.713 2.07252 140.458 3.94844 141.383 6.25415C141.861 7.43999 142.107 8.70791 142.106 9.98781C142.109 12.4746 141.192 14.8733 139.533 16.7158C137.875 18.5583 135.594 19.7125 133.137 19.9531C130.679 20.1937 128.22 19.5034 126.241 18.017C124.261 16.5306 122.902 14.3547 122.43 11.9139C121.957 9.47315 122.404 6.94258 123.685 4.81605C124.965 2.68951 126.986 1.11959 129.353 0.412625C131.721 -0.294338 134.265 -0.0876158 136.489 0.992454ZM134.017 9.74824L134.561 13.597L131.648 16.5357C132.887 16.6317 134.131 16.3822 135.237 15.8112C136.476 15.172 137.48 14.1626 138.107 12.9261C138.734 11.6896 138.951 10.289 138.729 8.92309C138.506 7.55718 137.855 6.29543 136.867 5.31698C136.624 5.07531 136.363 4.85294 136.085 4.65192L136.025 4.62797L130.424 10.2678L129.88 6.41906L132.838 3.43823C131.907 3.34829 130.967 3.45199 130.077 3.74392C129.094 4.06638 128.2 4.60975 127.465 5.3315C126.218 6.56621 125.518 8.24082 125.518 9.98695C125.518 11.7331 126.218 13.4077 127.465 14.6424C127.709 14.8826 127.971 15.1048 128.248 15.3075L128.426 15.3787L134.017 9.74824Z" fill="#97144D"/>
</svg>
